<?xml version="1.0" encoding="UTF-8" standalone="no"?>
<svg
   id="Layer_1"
   data-name="Layer 1"
   viewBox="0 0 551.94 551.94"
   version="1.1"
   sodipodi:docname="favicon.svg"
   width="551.94"
   height="551.94"
   inkscape:version="1.3 (0e150ed6c4, 2023-07-21)"
   xmlns:inkscape="http://www.inkscape.org/namespaces/inkscape"
   xmlns:sodipodi="http://sodipodi.sourceforge.net/DTD/sodipodi-0.dtd"
   xmlns="http://www.w3.org/2000/svg"
   xmlns:svg="http://www.w3.org/2000/svg">
  <sodipodi:namedview
     id="namedview8"
     pagecolor="#ffffff"
     bordercolor="#000000"
     borderopacity="0.25"
     inkscape:showpageshadow="2"
     inkscape:pageopacity="0.0"
     inkscape:pagecheckerboard="0"
     inkscape:deskcolor="#d1d1d1"
     inkscape:zoom="1.6462963"
     inkscape:cx="275.46682"
     inkscape:cy="275.77053"
     inkscape:window-width="3840"
     inkscape:window-height="2036"
     inkscape:window-x="-12"
     inkscape:window-y="-12"
     inkscape:window-maximized="1"
     inkscape:current-layer="Layer_1" />
  <defs
     id="defs1">
    <style
       id="style1">&#10;      .cls-1 {&#10;        fill: #b2151b;&#10;      }&#10;&#10;      .cls-2 {&#10;        fill: #ed1c24;&#10;      }&#10;    </style>
  </defs>
  <g
     id="g1"
     transform="translate(-264.03,-264.03)">
    <circle
       cx="540"
       cy="540"
       r="275.97"
       id="circle1" />
    <path
       class="cls-2"
       d="M 540,792.9 C 472.45,792.9 408.94,766.59 361.17,718.83 313.4,671.06 287.1,607.56 287.1,540 c 0,-67.56 26.31,-131.06 74.07,-178.82 47.77,-47.77 111.27,-74.07 178.83,-74.07 67.56,0 131.06,26.31 178.83,74.07 47.77,47.77 74.07,111.27 74.07,178.82 0,67.55 -26.31,131.06 -74.07,178.83 C 671.06,766.6 607.56,792.9 540,792.9 Z m 0,-499.79 c -136.14,0 -246.9,110.76 -246.9,246.9 0,136.14 110.76,246.9 246.9,246.9 136.14,0 246.9,-110.76 246.9,-246.9 0,-136.14 -110.76,-246.9 -246.9,-246.9 z"
       id="path1" />
  </g>
  <g
     id="g8"
     transform="translate(-264.03,-264.03)">
    <path
       class="cls-2"
       d="m 452.15,522.9 v 124 c 0,3.78 -4.67,5.58 -7.22,2.77 -19.87,-21.81 -44.35,-39.33 -71.91,-51.03 -1.53,-0.65 -2.54,-2.14 -2.54,-3.81 v -91.12 c 0,2.31 1.88,4.15 4.17,4.15 h 0.05 c 27.39,0 53.54,5.33 77.46,15.04 z"
       id="path2" />
    <path
       class="cls-2"
       d="m 514.86,562.74 c -0.7,-0.65 -1.41,-1.3 -2.12,-1.94 -17.69,-15.92 -38.15,-28.82 -60.58,-37.9 v -76.08 c 0,-1.66 -0.98,-3.16 -2.5,-3.8 0.84,0.31 1.67,0.64 2.5,0.98 35.14,14.23 65.46,37.84 87.85,67.73 -10.63,14.17 -19.49,29.75 -26.21,46.41 -0.65,1.6 -0.2,3.43 1.07,4.6 z"
       id="path3" />
    <path
       class="cls-1"
       d="m 452.15,446.82 v 76.08 c -23.92,-9.7 -50.07,-15.04 -77.46,-15.04 h -0.05 c -2.29,0 -4.17,-1.84 -4.17,-4.15 v -70.59 c 0,-1.58 0.88,-2.96 2.17,-3.66 0.23,-0.12 0.48,-0.22 0.73,-0.31 0.39,-0.12 0.79,-0.19 1.22,-0.19 h 0.09 c 1.64,0 3.3,0.02 4.95,0.06 h 0.19 c 1.57,0.05 3.15,0.09 4.71,0.17 0.12,0 0.25,0.02 0.37,0.02 1.19,0.06 2.37,0.12 3.55,0.2 0.51,0.03 1.01,0.08 1.5,0.11 1.1,0.08 2.22,0.17 3.32,0.28 0.57,0.03 1.15,0.09 1.71,0.15 h 0.03 c 1.32,0.12 2.62,0.26 3.92,0.42 0.34,0.03 0.7,0.08 1.04,0.12 1.3,0.15 2.59,0.33 3.88,0.51 1.29,0.18 2.59,0.37 3.86,0.57 0.57,0.09 1.13,0.19 1.71,0.29 1.07,0.17 2.14,0.37 3.19,0.56 0.51,0.09 1.01,0.19 1.52,0.29 0.6,0.11 1.21,0.23 1.8,0.36 0.93,0.19 1.86,0.37 2.79,0.59 0.67,0.12 1.33,0.28 2,0.45 1.05,0.23 2.11,0.48 3.16,0.74 1.3,0.31 2.6,0.64 3.89,0.99 0.88,0.22 1.77,0.47 2.65,0.71 0.84,0.23 1.67,0.48 2.51,0.73 0.73,0.2 1.46,0.42 2.19,0.65 0.84,0.25 1.67,0.51 2.5,0.79 0.45,0.14 0.91,0.28 1.36,0.43 1.21,0.39 2.4,0.79 3.6,1.22 0.45,0.14 0.9,0.29 1.35,0.48 0.74,0.25 1.5,0.51 2.23,0.81 0.87,0.31 1.74,0.64 2.6,0.98 0.31,0.11 0.6,0.22 0.9,0.36 1.52,0.64 2.5,2.14 2.5,3.8 z"
       id="path4" />
    <path
       class="cls-2"
       d="m 709.53,503.71 v 91.12 c 0,1.67 -1.01,3.16 -2.54,3.81 -27.56,11.7 -52.04,29.22 -71.91,51.03 -2.56,2.81 -7.22,1.01 -7.22,-2.77 v -124 c 23.92,-9.7 50.07,-15.04 77.46,-15.04 h 0.05 c 2.29,0 4.17,-1.84 4.17,-4.15 z"
       id="path5" />
    <path
       class="cls-1"
       d="m 709.53,433.11 v 70.59 c 0,2.31 -1.88,4.15 -4.17,4.15 h -0.05 c -27.39,0 -53.54,5.33 -77.46,15.04 v -76.08 c 0,-1.66 0.98,-3.15 2.48,-3.8 h 0.02 c 0.29,-0.14 0.59,-0.25 0.9,-0.36 0.87,-0.34 1.74,-0.67 2.6,-0.98 0.73,-0.29 1.49,-0.56 2.23,-0.81 0.06,-0.02 0.11,-0.05 0.17,-0.06 0.36,-0.14 0.71,-0.28 1.09,-0.39 0.03,-0.02 0.06,-0.02 0.09,-0.03 1.19,-0.43 2.39,-0.84 3.6,-1.22 0.45,-0.15 0.91,-0.29 1.36,-0.43 0.71,-0.25 1.43,-0.47 2.15,-0.68 0.11,-0.05 0.23,-0.08 0.34,-0.11 0.73,-0.23 1.46,-0.45 2.19,-0.65 0.68,-0.2 1.38,-0.4 2.06,-0.6 0.06,-0.02 0.11,-0.03 0.17,-0.05 0.09,-0.03 0.19,-0.05 0.28,-0.08 0.82,-0.23 1.63,-0.45 2.45,-0.67 0.06,-0.02 0.14,-0.03 0.2,-0.05 1.29,-0.36 2.59,-0.68 3.89,-0.99 1.05,-0.26 2.11,-0.51 3.16,-0.74 0.08,-0.02 0.15,-0.05 0.23,-0.06 0.53,-0.12 1.05,-0.25 1.58,-0.36 0.06,0 0.12,-0.02 0.19,-0.03 0.93,-0.22 1.86,-0.4 2.79,-0.59 0.59,-0.12 1.19,-0.25 1.8,-0.36 0.51,-0.11 1.01,-0.2 1.52,-0.29 1.05,-0.19 2.12,-0.39 3.19,-0.56 0.42,-0.08 0.84,-0.15 1.24,-0.22 0.06,-0.02 0.11,-0.02 0.17,-0.03 0.09,-0.02 0.2,-0.03 0.29,-0.05 1.27,-0.2 2.57,-0.4 3.86,-0.57 1.29,-0.19 2.57,-0.36 3.88,-0.51 0.34,-0.05 0.7,-0.09 1.04,-0.12 1.3,-0.16 2.6,-0.29 3.92,-0.42 h 0.03 c 0.56,-0.06 1.13,-0.12 1.71,-0.15 1.1,-0.11 2.22,-0.2 3.32,-0.28 0.5,-0.03 0.99,-0.08 1.5,-0.11 1.18,-0.08 2.36,-0.14 3.55,-0.2 0.12,0 0.25,-0.02 0.37,-0.02 1.57,-0.08 3.15,-0.12 4.71,-0.17 h 0.19 c 1.64,-0.05 3.3,-0.06 4.95,-0.06 h 0.17 c 0.17,0 0.33,0.02 0.48,0.05 0.23,0.02 0.45,0.08 0.67,0.14 0.26,0.08 0.5,0.19 0.73,0.31 0.19,0.11 0.37,0.22 0.54,0.36 0.12,0.09 0.23,0.19 0.34,0.29 0.12,0.11 0.23,0.23 0.34,0.36 0.12,0.15 0.23,0.33 0.34,0.5 0.06,0.11 0.14,0.22 0.19,0.34 0.03,0.06 0.06,0.12 0.09,0.2 0.08,0.19 0.14,0.34 0.19,0.53 v 0.03 c 0.05,0.16 0.08,0.31 0.09,0.47 0.03,0.2 0.05,0.39 0.05,0.59 z"
       id="path6" />
    <path
       class="cls-2"
       d="m 630.33,443.02 c -1.5,0.65 -2.48,2.14 -2.48,3.8 v 76.08 c -22.43,9.08 -42.89,21.98 -60.58,37.9 -0.71,0.64 -1.43,1.29 -2.12,1.94 1.27,-1.18 1.72,-3.01 1.07,-4.6 -6.73,-16.66 -15.58,-32.24 -26.21,-46.41 22.38,-29.89 52.71,-53.5 87.85,-67.73 0.82,-0.34 1.64,-0.67 2.48,-0.98 z"
       id="path7" />
    <path
       class="cls-1"
       d="m 565.14,562.74 c -0.15,0.14 -0.29,0.28 -0.43,0.4 -0.87,0.81 -1.74,1.63 -2.59,2.46 -0.42,0.39 -0.84,0.81 -1.26,1.21 -0.59,0.57 -1.18,1.15 -1.74,1.72 -0.59,0.57 -1.15,1.15 -1.72,1.74 -0.05,0.05 -0.09,0.11 -0.15,0.15 -0.67,0.7 -1.33,1.38 -2,2.09 -2.42,2.56 -4.76,5.16 -7.04,7.84 -0.88,1.02 -1.74,2.05 -2.59,3.08 -0.81,0.98 -1.6,1.97 -2.39,2.96 -1.66,2.09 -4.82,2.09 -6.48,0 -1.26,-1.6 -2.54,-3.18 -3.86,-4.73 -0.57,-0.7 -1.15,-1.38 -1.75,-2.06 -0.09,-0.12 -0.2,-0.25 -0.33,-0.37 -0.59,-0.71 -1.21,-1.41 -1.84,-2.11 -0.74,-0.85 -1.5,-1.69 -2.28,-2.51 -0.74,-0.84 -1.52,-1.66 -2.31,-2.48 -0.47,-0.51 -0.95,-1.01 -1.44,-1.5 -0.14,-0.15 -0.29,-0.31 -0.47,-0.47 -0.59,-0.62 -1.19,-1.24 -1.81,-1.84 -1.89,-1.91 -3.83,-3.77 -5.81,-5.6 -1.27,-1.18 -1.72,-3.01 -1.07,-4.6 6.73,-16.66 15.58,-32.24 26.21,-46.41 10.63,14.17 19.49,29.75 26.21,46.41 0.65,1.6 0.2,3.43 -1.07,4.6 z"
       id="path8" />
  </g>
</svg>
