<?xml version="1.0" encoding="UTF-8" standalone="no"?>
<svg
   id="Layer_1"
   data-name="Layer 1"
   viewBox="0 0 505.79999 505.79001"
   version="1.1"
   sodipodi:docname="favicon.svg"
   width="505.79999"
   height="505.79001"
   inkscape:version="1.3 (0e150ed6c4, 2023-07-21)"
   xmlns:inkscape="http://www.inkscape.org/namespaces/inkscape"
   xmlns:sodipodi="http://sodipodi.sourceforge.net/DTD/sodipodi-0.dtd"
   xmlns="http://www.w3.org/2000/svg"
   xmlns:svg="http://www.w3.org/2000/svg">
  <sodipodi:namedview
     id="namedview8"
     pagecolor="#ffffff"
     bordercolor="#000000"
     borderopacity="0.25"
     inkscape:showpageshadow="2"
     inkscape:pageopacity="0.0"
     inkscape:pagecheckerboard="0"
     inkscape:deskcolor="#d1d1d1"
     inkscape:zoom="1.6462963"
     inkscape:cx="123.00337"
     inkscape:cy="258.76265"
     inkscape:window-width="3840"
     inkscape:window-height="2036"
     inkscape:window-x="-12"
     inkscape:window-y="-12"
     inkscape:window-maximized="1"
     inkscape:current-layer="Layer_1" />
  <defs
     id="defs1">
    <style
       id="style1">&#10;      .cls-1 {&#10;        fill: #b2151b;&#10;      }&#10;&#10;      .cls-2 {&#10;        fill: #ed1c24;&#10;      }&#10;    </style>
  </defs>
  <g
     id="g1"
     transform="translate(-287.1,-287.11)"
     style="stroke-width:20;stroke-dasharray:none">
    <path
       class="cls-2"
       d="M 540,792.9 C 472.45,792.9 408.94,766.59 361.17,718.83 313.4,671.06 287.1,607.56 287.1,540 c 0,-67.56 26.31,-131.06 74.07,-178.82 47.77,-47.77 111.27,-74.07 178.83,-74.07 67.56,0 131.06,26.31 178.83,74.07 47.77,47.77 74.07,111.27 74.07,178.82 0,67.55 -26.31,131.06 -74.07,178.83 C 671.06,766.6 607.56,792.9 540,792.9 Z m 0,-499.79 c -136.14,0 -246.9,110.76 -246.9,246.9 0,136.14 110.76,246.9 246.9,246.9 136.14,0 246.9,-110.76 246.9,-246.9 0,-136.14 -110.76,-246.9 -246.9,-246.9 z"
       id="path1"
       style="stroke:#ffffff;stroke-width:0;stroke-dasharray:none;stroke-opacity:1;paint-order:markers stroke fill" />
  </g>
  <g
     id="g8"
     transform="translate(-287.1,-287.11)">
    <path
       class="cls-2"
       d="m 452.15,522.9 v 124 c 0,3.78 -4.67,5.58 -7.22,2.77 -19.87,-21.81 -44.35,-39.33 -71.91,-51.03 -1.53,-0.65 -2.54,-2.14 -2.54,-3.81 v -91.12 c 0,2.31 1.88,4.15 4.17,4.15 h 0.05 c 27.39,0 53.54,5.33 77.46,15.04 z"
       id="path2" />
    <path
       class="cls-2"
       d="m 514.86,562.74 c -0.7,-0.65 -1.41,-1.3 -2.12,-1.94 -17.69,-15.92 -38.15,-28.82 -60.58,-37.9 v -76.08 c 0,-1.66 -0.98,-3.16 -2.5,-3.8 0.84,0.31 1.67,0.64 2.5,0.98 35.14,14.23 65.46,37.84 87.85,67.73 -10.63,14.17 -19.49,29.75 -26.21,46.41 -0.65,1.6 -0.2,3.43 1.07,4.6 z"
       id="path3" />
    <path
       class="cls-1"
       d="m 452.15,446.82 v 76.08 c -23.92,-9.7 -50.07,-15.04 -77.46,-15.04 h -0.05 c -2.29,0 -4.17,-1.84 -4.17,-4.15 v -70.59 c 0,-1.58 0.88,-2.96 2.17,-3.66 0.23,-0.12 0.48,-0.22 0.73,-0.31 0.39,-0.12 0.79,-0.19 1.22,-0.19 h 0.09 c 1.64,0 3.3,0.02 4.95,0.06 h 0.19 c 1.57,0.05 3.15,0.09 4.71,0.17 0.12,0 0.25,0.02 0.37,0.02 1.19,0.06 2.37,0.12 3.55,0.2 0.51,0.03 1.01,0.08 1.5,0.11 1.1,0.08 2.22,0.17 3.32,0.28 0.57,0.03 1.15,0.09 1.71,0.15 h 0.03 c 1.32,0.12 2.62,0.26 3.92,0.42 0.34,0.03 0.7,0.08 1.04,0.12 1.3,0.15 2.59,0.33 3.88,0.51 1.29,0.18 2.59,0.37 3.86,0.57 0.57,0.09 1.13,0.19 1.71,0.29 1.07,0.17 2.14,0.37 3.19,0.56 0.51,0.09 1.01,0.19 1.52,0.29 0.6,0.11 1.21,0.23 1.8,0.36 0.93,0.19 1.86,0.37 2.79,0.59 0.67,0.12 1.33,0.28 2,0.45 1.05,0.23 2.11,0.48 3.16,0.74 1.3,0.31 2.6,0.64 3.89,0.99 0.88,0.22 1.77,0.47 2.65,0.71 0.84,0.23 1.67,0.48 2.51,0.73 0.73,0.2 1.46,0.42 2.19,0.65 0.84,0.25 1.67,0.51 2.5,0.79 0.45,0.14 0.91,0.28 1.36,0.43 1.21,0.39 2.4,0.79 3.6,1.22 0.45,0.14 0.9,0.29 1.35,0.48 0.74,0.25 1.5,0.51 2.23,0.81 0.87,0.31 1.74,0.64 2.6,0.98 0.31,0.11 0.6,0.22 0.9,0.36 1.52,0.64 2.5,2.14 2.5,3.8 z"
       id="path4" />
    <path
       class="cls-2"
       d="m 709.53,503.71 v 91.12 c 0,1.67 -1.01,3.16 -2.54,3.81 -27.56,11.7 -52.04,29.22 -71.91,51.03 -2.56,2.81 -7.22,1.01 -7.22,-2.77 v -124 c 23.92,-9.7 50.07,-15.04 77.46,-15.04 h 0.05 c 2.29,0 4.17,-1.84 4.17,-4.15 z"
       id="path5" />
    <path
       class="cls-1"
       d="m 709.53,433.11 v 70.59 c 0,2.31 -1.88,4.15 -4.17,4.15 h -0.05 c -27.39,0 -53.54,5.33 -77.46,15.04 v -76.08 c 0,-1.66 0.98,-3.15 2.48,-3.8 h 0.02 c 0.29,-0.14 0.59,-0.25 0.9,-0.36 0.87,-0.34 1.74,-0.67 2.6,-0.98 0.73,-0.29 1.49,-0.56 2.23,-0.81 0.06,-0.02 0.11,-0.05 0.17,-0.06 0.36,-0.14 0.71,-0.28 1.09,-0.39 0.03,-0.02 0.06,-0.02 0.09,-0.03 1.19,-0.43 2.39,-0.84 3.6,-1.22 0.45,-0.15 0.91,-0.29 1.36,-0.43 0.71,-0.25 1.43,-0.47 2.15,-0.68 0.11,-0.05 0.23,-0.08 0.34,-0.11 0.73,-0.23 1.46,-0.45 2.19,-0.65 0.68,-0.2 1.38,-0.4 2.06,-0.6 0.06,-0.02 0.11,-0.03 0.17,-0.05 0.09,-0.03 0.19,-0.05 0.28,-0.08 0.82,-0.23 1.63,-0.45 2.45,-0.67 0.06,-0.02 0.14,-0.03 0.2,-0.05 1.29,-0.36 2.59,-0.68 3.89,-0.99 1.05,-0.26 2.11,-0.51 3.16,-0.74 0.08,-0.02 0.15,-0.05 0.23,-0.06 0.53,-0.12 1.05,-0.25 1.58,-0.36 0.06,0 0.12,-0.02 0.19,-0.03 0.93,-0.22 1.86,-0.4 2.79,-0.59 0.59,-0.12 1.19,-0.25 1.8,-0.36 0.51,-0.11 1.01,-0.2 1.52,-0.29 1.05,-0.19 2.12,-0.39 3.19,-0.56 0.42,-0.08 0.84,-0.15 1.24,-0.22 0.06,-0.02 0.11,-0.02 0.17,-0.03 0.09,-0.02 0.2,-0.03 0.29,-0.05 1.27,-0.2 2.57,-0.4 3.86,-0.57 1.29,-0.19 2.57,-0.36 3.88,-0.51 0.34,-0.05 0.7,-0.09 1.04,-0.12 1.3,-0.16 2.6,-0.29 3.92,-0.42 h 0.03 c 0.56,-0.06 1.13,-0.12 1.71,-0.15 1.1,-0.11 2.22,-0.2 3.32,-0.28 0.5,-0.03 0.99,-0.08 1.5,-0.11 1.18,-0.08 2.36,-0.14 3.55,-0.2 0.12,0 0.25,-0.02 0.37,-0.02 1.57,-0.08 3.15,-0.12 4.71,-0.17 h 0.19 c 1.64,-0.05 3.3,-0.06 4.95,-0.06 h 0.17 c 0.17,0 0.33,0.02 0.48,0.05 0.23,0.02 0.45,0.08 0.67,0.14 0.26,0.08 0.5,0.19 0.73,0.31 0.19,0.11 0.37,0.22 0.54,0.36 0.12,0.09 0.23,0.19 0.34,0.29 0.12,0.11 0.23,0.23 0.34,0.36 0.12,0.15 0.23,0.33 0.34,0.5 0.06,0.11 0.14,0.22 0.19,0.34 0.03,0.06 0.06,0.12 0.09,0.2 0.08,0.19 0.14,0.34 0.19,0.53 v 0.03 c 0.05,0.16 0.08,0.31 0.09,0.47 0.03,0.2 0.05,0.39 0.05,0.59 z"
       id="path6" />
    <path
       class="cls-2"
       d="m 630.33,443.02 c -1.5,0.65 -2.48,2.14 -2.48,3.8 v 76.08 c -22.43,9.08 -42.89,21.98 -60.58,37.9 -0.71,0.64 -1.43,1.29 -2.12,1.94 1.27,-1.18 1.72,-3.01 1.07,-4.6 -6.73,-16.66 -15.58,-32.24 -26.21,-46.41 22.38,-29.89 52.71,-53.5 87.85,-67.73 0.82,-0.34 1.64,-0.67 2.48,-0.98 z"
       id="path7" />
    <path
       class="cls-1"
       d="m 565.14,562.74 c -0.15,0.14 -0.29,0.28 -0.43,0.4 -0.87,0.81 -1.74,1.63 -2.59,2.46 -0.42,0.39 -0.84,0.81 -1.26,1.21 -0.59,0.57 -1.18,1.15 -1.74,1.72 -0.59,0.57 -1.15,1.15 -1.72,1.74 -0.05,0.05 -0.09,0.11 -0.15,0.15 -0.67,0.7 -1.33,1.38 -2,2.09 -2.42,2.56 -4.76,5.16 -7.04,7.84 -0.88,1.02 -1.74,2.05 -2.59,3.08 -0.81,0.98 -1.6,1.97 -2.39,2.96 -1.66,2.09 -4.82,2.09 -6.48,0 -1.26,-1.6 -2.54,-3.18 -3.86,-4.73 -0.57,-0.7 -1.15,-1.38 -1.75,-2.06 -0.09,-0.12 -0.2,-0.25 -0.33,-0.37 -0.59,-0.71 -1.21,-1.41 -1.84,-2.11 -0.74,-0.85 -1.5,-1.69 -2.28,-2.51 -0.74,-0.84 -1.52,-1.66 -2.31,-2.48 -0.47,-0.51 -0.95,-1.01 -1.44,-1.5 -0.14,-0.15 -0.29,-0.31 -0.47,-0.47 -0.59,-0.62 -1.19,-1.24 -1.81,-1.84 -1.89,-1.91 -3.83,-3.77 -5.81,-5.6 -1.27,-1.18 -1.72,-3.01 -1.07,-4.6 6.73,-16.66 15.58,-32.24 26.21,-46.41 10.63,14.17 19.49,29.75 26.21,46.41 0.65,1.6 0.2,3.43 -1.07,4.6 z"
       id="path8" />
  </g>
  <path
     style="fill:none;fill-opacity:1;stroke:#ffffff;stroke-width:0;paint-order:markers stroke fill"
     d="M 236.55703,499.00023 C 210.10341,497.03037 186.50916,491.67008 162.50441,482.1765 115.31799,463.51485 74.87332,430.53371 46.685716,387.7306 25.568851,355.66448 12.685991,320.08088 7.8005012,280.32621 6.2633091,267.81762 6.2581202,238.02262 7.7909805,225.65804 13.809931,177.10712 31.020064,135.9435 60.99527,98.402699 68.010625,89.616705 83.213666,73.914167 92.177022,66.196467 138.84144,26.017116 197.51923,5.0111325 258.76265,6.5607045 c 7.68392,0.1944173 17.66086,0.7973606 22.17098,1.339874 68.68475,8.2619465 129.13064,43.3754955 170.43303,99.0060615 22.23615,29.95006 38.3638,67.66094 44.55131,104.17322 3.31027,19.53376 4.37395,46.46626 2.55491,64.69067 -7.45172,74.65642 -47.11285,140.88759 -109.11405,182.2124 -33.49751,22.32664 -69.89113,35.56609 -110.24747,40.10637 -10.02723,1.12811 -33.02631,1.62044 -42.55433,0.91093 z m -72.52492,-136.34045 1.49095,-1.49095 v -62.32951 -62.32951 l 1.3667,0.42081 c 0.75169,0.23144 4.95411,2.12708 9.33871,4.21252 25.58756,12.17019 49.63857,30.69644 68.41349,52.69825 5.45913,6.3974 6.29504,7.13724 8.06415,7.13724 2.35414,0 3.04788,-0.58572 8.63332,-7.28909 5.27774,-6.33409 18.19906,-19.18846 24.75731,-24.62903 6.90979,-5.73221 15.6388,-12.06615 23.22474,-16.85235 6.09055,-3.8427 26.69959,-14.44137 29.77301,-15.31144 l 1.3667,-0.38691 v 62.41461 62.41461 l 1.32073,1.40585 c 2.75348,2.93095 4.03014,2.23343 14.38326,-7.85849 5.22726,-5.09539 12.1114,-11.35148 15.29808,-13.90243 12.50097,-10.00706 28.59718,-20.01362 42.01173,-26.11749 3.77435,-1.7174 7.34081,-3.53705 7.92546,-4.04366 1.00269,-0.86885 1.06299,-5.62568 1.06299,-83.84438 0,-76.30857 -0.0802,-83.01188 -1.00528,-84.03409 -1.86921,-2.06545 -19.31875,-1.40446 -36.90316,1.3979 -35.16551,5.60418 -68.85858,20.85172 -97.54713,44.14421 -8.10079,6.57711 -23.92508,22.55069 -29.46006,29.738 -2.33859,3.03671 -4.4161,5.47321 -4.6167,5.41445 -0.2006,-0.0588 -2.6587,-2.97692 -5.46243,-6.48479 -10.71025,-13.40007 -28.88611,-29.97991 -43.80554,-39.95896 -29.30096,-19.59834 -60.02473,-30.80574 -94.4722,-34.46155 -8.80761,-0.93473 -23.080183,-1.19127 -24.212495,-0.43521 -2.040629,1.36257 -2.065059,2.36464 -2.065059,84.70312 0,71.62285 0.11165,81.76272 0.912891,82.90665 0.502085,0.71684 5.134149,3.34978 10.293463,5.85098 22.10066,10.71427 38.5198,22.33686 56.52143,40.00976 9.31799,9.14784 10.51699,9.76483 13.39094,6.89088 z"
     id="path11" />
  <path
     style="fill:none;fill-opacity:1;stroke:#ffffff;stroke-width:0;paint-order:markers stroke fill"
     d="M 235.07312,498.92494 C 208.8564,496.22866 193.23855,492.99762 173.19684,486.12388 88.541826,457.08963 25.641434,383.70176 10.084471,295.81552 7.4062039,280.68514 6.7124615,271.97792 6.6967421,253.29584 6.6808352,234.39085 7.2139096,227.23062 9.771859,211.991 26.983103,109.45073 107.91945,28.048699 210.58525,10.022186 c 27.51632,-4.8314362 57.16754,-4.8298905 84.62285,0.0044 50.45121,8.883398 96.10345,32.762683 132.41845,69.264045 54.79912,55.080339 80.40702,132.322819 69.25664,208.902499 -10.11399,69.46175 -49.24188,131.02848 -108.23926,170.31166 -31.371,20.88827 -65.87681,33.74742 -104.67318,39.00816 -7.41891,1.00599 -13.343,1.31751 -27.9415,1.46926 -10.18954,0.10593 -19.6198,0.0802 -20.95613,-0.0573 z m -72.0268,-135.35731 c 0.9432,-0.48775 1.88258,-1.51277 2.08753,-2.27784 0.20494,-0.76507 0.37636,-29.18831 0.38092,-63.16276 l 0.008,-61.77174 3.18898,1.30223 c 6.41838,2.62098 21.60184,10.64974 28.70078,15.17649 18.90334,12.054 36.70436,27.78424 49.50506,43.74616 2.91972,3.64076 5.22603,5.05325 7.21843,4.42089 0.67855,-0.21537 3.47103,-3.04193 6.2055,-6.28125 18.8392,-22.31735 43.12792,-41.05929 69.41549,-53.56317 4.71785,-2.24409 9.05625,-4.24899 9.6409,-4.45535 1.0079,-0.35575 1.06299,2.85262 1.06299,61.90664 0,42.73948 0.20218,62.65961 0.64436,63.48583 0.9089,1.6983 3.25096,2.46621 5.22856,1.71433 0.89153,-0.33896 3.28326,-2.43201 5.31496,-4.65124 14.9706,-16.35232 40.73225,-34.78076 62.15949,-44.46541 3.42486,-1.54796 6.77328,-3.2822 7.44094,-3.85387 1.20263,-1.02972 1.21394,-1.81187 1.21394,-83.95873 V 143.9595 l -1.30606,-1.30606 c -1.26142,-1.26141 -1.63,-1.29267 -10.78178,-0.91441 -60.19505,2.48798 -115.43009,30.15321 -152.99555,76.62992 -2.16022,2.67267 -4.14284,4.8594 -4.40581,4.8594 -0.26298,0 -2.85629,-2.87008 -5.76291,-6.37796 -19.19694,-23.16829 -42.826,-41.68167 -69.84321,-54.72244 -26.24068,-12.66594 -52.11266,-19.09205 -82.065636,-20.38356 l -9.223777,-0.39771 -1.582516,1.58251 -1.582515,1.58252 v 81.68661 c 0,48.84322 0.226951,82.28352 0.564467,83.17126 0.433518,1.14024 2.905497,2.62316 10.655761,6.39233 14.453536,7.02916 26.820126,14.69261 38.456346,23.83104 6.52302,5.1228 18.8407,16.38889 22.30165,20.39768 3.80491,4.40722 5.28975,5.05854 8.15471,3.577 z"
     id="path12" />
  <path
     style="fill:none;fill-opacity:1;stroke:#ffffff;stroke-width:0;paint-order:markers stroke fill"
     d="M 235.07312,498.92494 C 208.8564,496.22866 193.23855,492.99762 173.19684,486.12388 88.541826,457.08963 25.641434,383.70176 10.084471,295.81552 7.4062039,280.68514 6.7124615,271.97792 6.6967421,253.29584 6.6808352,234.39085 7.2139096,227.23062 9.771859,211.991 26.983103,109.45073 107.91945,28.048699 210.58525,10.022186 c 27.51632,-4.8314362 57.16754,-4.8298905 84.62285,0.0044 50.45121,8.883398 96.10345,32.762683 132.41845,69.264045 54.79912,55.080339 80.40702,132.322819 69.25664,208.902499 -10.11399,69.46175 -49.24188,131.02848 -108.23926,170.31166 -31.371,20.88827 -65.87681,33.74742 -104.67318,39.00816 -7.41891,1.00599 -13.343,1.31751 -27.9415,1.46926 -10.18954,0.10593 -19.6198,0.0802 -20.95613,-0.0573 z m -72.0268,-135.35731 c 0.9432,-0.48775 1.88258,-1.51277 2.08753,-2.27784 0.20494,-0.76507 0.37636,-29.18831 0.38092,-63.16276 l 0.008,-61.77174 3.18898,1.30223 c 6.41838,2.62098 21.60184,10.64974 28.70078,15.17649 18.90334,12.054 36.70436,27.78424 49.50506,43.74616 2.91972,3.64076 5.22603,5.05325 7.21843,4.42089 0.67855,-0.21537 3.47103,-3.04193 6.2055,-6.28125 18.8392,-22.31735 43.12792,-41.05929 69.41549,-53.56317 4.71785,-2.24409 9.05625,-4.24899 9.6409,-4.45535 1.0079,-0.35575 1.06299,2.85262 1.06299,61.90664 0,42.73948 0.20218,62.65961 0.64436,63.48583 0.9089,1.6983 3.25096,2.46621 5.22856,1.71433 0.89153,-0.33896 3.28326,-2.43201 5.31496,-4.65124 14.9706,-16.35232 40.73225,-34.78076 62.15949,-44.46541 3.42486,-1.54796 6.77328,-3.2822 7.44094,-3.85387 1.20263,-1.02972 1.21394,-1.81187 1.21394,-83.95873 V 143.9595 l -1.30606,-1.30606 c -1.26142,-1.26141 -1.63,-1.29267 -10.78178,-0.91441 -60.19505,2.48798 -115.43009,30.15321 -152.99555,76.62992 -2.16022,2.67267 -4.14284,4.8594 -4.40581,4.8594 -0.26298,0 -2.85629,-2.87008 -5.76291,-6.37796 -19.19694,-23.16829 -42.826,-41.68167 -69.84321,-54.72244 -26.24068,-12.66594 -52.11266,-19.09205 -82.065636,-20.38356 l -9.223777,-0.39771 -1.582516,1.58251 -1.582515,1.58252 v 81.68661 c 0,48.84322 0.226951,82.28352 0.564467,83.17126 0.433518,1.14024 2.905497,2.62316 10.655761,6.39233 14.453536,7.02916 26.820126,14.69261 38.456346,23.83104 6.52302,5.1228 18.8407,16.38889 22.30165,20.39768 3.80491,4.40722 5.28975,5.05854 8.15471,3.577 z"
     id="path13" />
  <path
     style="fill:none;fill-opacity:1;stroke:#ffffff;stroke-width:0;paint-order:markers stroke fill"
     d="M 235.07312,498.92494 C 208.8564,496.22866 193.23855,492.99762 173.19684,486.12388 88.541826,457.08963 25.641434,383.70176 10.084471,295.81552 7.4062039,280.68514 6.7124615,271.97792 6.6967421,253.29584 6.6808352,234.39085 7.2139096,227.23062 9.771859,211.991 26.983103,109.45073 107.91945,28.048699 210.58525,10.022186 c 27.51632,-4.8314362 57.16754,-4.8298905 84.62285,0.0044 50.45121,8.883398 96.10345,32.762683 132.41845,69.264045 54.79912,55.080339 80.40702,132.322819 69.25664,208.902499 -10.11399,69.46175 -49.24188,131.02848 -108.23926,170.31166 -31.371,20.88827 -65.87681,33.74742 -104.67318,39.00816 -7.41891,1.00599 -13.343,1.31751 -27.9415,1.46926 -10.18954,0.10593 -19.6198,0.0802 -20.95613,-0.0573 z m -72.0268,-135.35731 c 0.9432,-0.48775 1.88258,-1.51277 2.08753,-2.27784 0.20494,-0.76507 0.37636,-29.18831 0.38092,-63.16276 l 0.008,-61.77174 3.18898,1.30223 c 6.41838,2.62098 21.60184,10.64974 28.70078,15.17649 18.90334,12.054 36.70436,27.78424 49.50506,43.74616 2.91972,3.64076 5.22603,5.05325 7.21843,4.42089 0.67855,-0.21537 3.47103,-3.04193 6.2055,-6.28125 18.8392,-22.31735 43.12792,-41.05929 69.41549,-53.56317 4.71785,-2.24409 9.05625,-4.24899 9.6409,-4.45535 1.0079,-0.35575 1.06299,2.85262 1.06299,61.90664 0,42.73948 0.20218,62.65961 0.64436,63.48583 0.9089,1.6983 3.25096,2.46621 5.22856,1.71433 0.89153,-0.33896 3.28326,-2.43201 5.31496,-4.65124 14.9706,-16.35232 40.73225,-34.78076 62.15949,-44.46541 3.42486,-1.54796 6.77328,-3.2822 7.44094,-3.85387 1.20263,-1.02972 1.21394,-1.81187 1.21394,-83.95873 V 143.9595 l -1.30606,-1.30606 c -1.26142,-1.26141 -1.63,-1.29267 -10.78178,-0.91441 -60.19505,2.48798 -115.43009,30.15321 -152.99555,76.62992 -2.16022,2.67267 -4.14284,4.8594 -4.40581,4.8594 -0.26298,0 -2.85629,-2.87008 -5.76291,-6.37796 -19.19694,-23.16829 -42.826,-41.68167 -69.84321,-54.72244 -26.24068,-12.66594 -52.11266,-19.09205 -82.065636,-20.38356 l -9.223777,-0.39771 -1.582516,1.58251 -1.582515,1.58252 v 81.68661 c 0,48.84322 0.226951,82.28352 0.564467,83.17126 0.433518,1.14024 2.905497,2.62316 10.655761,6.39233 14.453536,7.02916 26.820126,14.69261 38.456346,23.83104 6.52302,5.1228 18.8407,16.38889 22.30165,20.39768 3.80491,4.40722 5.28975,5.05854 8.15471,3.577 z"
     id="path14" />
  <path
     style="fill:#f9f9f9;fill-opacity:1;stroke:#ffffff;stroke-width:0;paint-order:markers stroke fill"
     d="M 235.07312,498.92494 C 208.8564,496.22866 193.23855,492.99762 173.19684,486.12388 88.541826,457.08963 25.641434,383.70176 10.084471,295.81552 7.4062039,280.68514 6.7124615,271.97792 6.6967421,253.29584 6.6808352,234.39085 7.2139096,227.23062 9.771859,211.991 26.983103,109.45073 107.91945,28.048699 210.58525,10.022186 c 27.51632,-4.8314362 57.16754,-4.8298905 84.62285,0.0044 50.45121,8.883398 96.10345,32.762683 132.41845,69.264045 54.79912,55.080339 80.40702,132.322819 69.25664,208.902499 -10.11399,69.46175 -49.24188,131.02848 -108.23926,170.31166 -31.371,20.88827 -65.87681,33.74742 -104.67318,39.00816 -7.41891,1.00599 -13.343,1.31751 -27.9415,1.46926 -10.18954,0.10593 -19.6198,0.0802 -20.95613,-0.0573 z m -72.0268,-135.35731 c 0.9432,-0.48775 1.88258,-1.51277 2.08753,-2.27784 0.20494,-0.76507 0.37636,-29.18831 0.38092,-63.16276 l 0.008,-61.77174 3.18898,1.30223 c 6.41838,2.62098 21.60184,10.64974 28.70078,15.17649 18.90334,12.054 36.70436,27.78424 49.50506,43.74616 2.91972,3.64076 5.22603,5.05325 7.21843,4.42089 0.67855,-0.21537 3.47103,-3.04193 6.2055,-6.28125 18.8392,-22.31735 43.12792,-41.05929 69.41549,-53.56317 4.71785,-2.24409 9.05625,-4.24899 9.6409,-4.45535 1.0079,-0.35575 1.06299,2.85262 1.06299,61.90664 0,42.73948 0.20218,62.65961 0.64436,63.48583 0.9089,1.6983 3.25096,2.46621 5.22856,1.71433 0.89153,-0.33896 3.28326,-2.43201 5.31496,-4.65124 14.9706,-16.35232 40.73225,-34.78076 62.15949,-44.46541 3.42486,-1.54796 6.77328,-3.2822 7.44094,-3.85387 1.20263,-1.02972 1.21394,-1.81187 1.21394,-83.95873 V 143.9595 l -1.30606,-1.30606 c -1.26142,-1.26141 -1.63,-1.29267 -10.78178,-0.91441 -60.19505,2.48798 -115.43009,30.15321 -152.99555,76.62992 -2.16022,2.67267 -4.14284,4.8594 -4.40581,4.8594 -0.26298,0 -2.85629,-2.87008 -5.76291,-6.37796 -19.19694,-23.16829 -42.826,-41.68167 -69.84321,-54.72244 -26.24068,-12.66594 -52.11266,-19.09205 -82.065636,-20.38356 l -9.223777,-0.39771 -1.582516,1.58251 -1.582515,1.58252 v 81.68661 c 0,48.84322 0.226951,82.28352 0.564467,83.17126 0.433518,1.14024 2.905497,2.62316 10.655761,6.39233 14.453536,7.02916 26.820126,14.69261 38.456346,23.83104 6.52302,5.1228 18.8407,16.38889 22.30165,20.39768 3.80491,4.40722 5.28975,5.05854 8.15471,3.577 z"
     id="path15" />
</svg>
