<?xml version="1.0" encoding="UTF-8" standalone="no"?>
<svg
   id="Layer_1"
   data-name="Layer 1"
   viewBox="0 0 741.48999 90.730431"
   version="1.1"
   sodipodi:docname="logo.svg"
   width="741.48999"
   height="90.730431"
   inkscape:version="1.3 (0e150ed6c4, 2023-07-21)"
   xmlns:inkscape="http://www.inkscape.org/namespaces/inkscape"
   xmlns:sodipodi="http://sodipodi.sourceforge.net/DTD/sodipodi-0.dtd"
   xmlns="http://www.w3.org/2000/svg"
   xmlns:svg="http://www.w3.org/2000/svg">
  <sodipodi:namedview
     id="namedview19"
     pagecolor="#ffffff"
     bordercolor="#000000"
     borderopacity="0.25"
     inkscape:showpageshadow="2"
     inkscape:pageopacity="0.0"
     inkscape:pagecheckerboard="0"
     inkscape:deskcolor="#d1d1d1"
     inkscape:zoom="1.6462963"
     inkscape:cx="370.22497"
     inkscape:cy="45.556805"
     inkscape:window-width="3840"
     inkscape:window-height="2036"
     inkscape:window-x="-12"
     inkscape:window-y="-12"
     inkscape:window-maximized="1"
     inkscape:current-layer="Layer_1" />
  <defs
     id="defs1">
    <style
       id="style1">&#10;      .cls-1 {&#10;        fill: #b2151b;&#10;      }&#10;&#10;      .cls-2 {&#10;        fill: #ed1c24;&#10;      }&#10;    </style>
  </defs>
  <g
     id="g12"
     transform="translate(-169.25,-494.64)">
    <path
       d="m 342.91,567.2 v -61 H 351 l 23.94,34.59 23.69,-34.59 h 8.25 v 61 h -12.22 v -34.59 l -17.75,25.51 H 372.7 L 354.95,532.61 V 567.2 H 342.9 Z"
       id="path1" />
    <path
       d="m 461.53,548.79 h -33.76 c 1.65,6.36 6.03,9.58 13.13,9.58 4.87,0 10.65,-1.9 14.53,-4.54 l 4.62,8.17 c -5.7,4.13 -12.22,6.19 -19.65,6.19 -7.92,0 -13.95,-2.31 -18.16,-6.85 -4.21,-4.54 -6.27,-10.15 -6.27,-16.67 0,-6.85 2.15,-12.46 6.52,-16.92 4.38,-4.46 9.99,-6.69 16.92,-6.69 6.52,0 11.97,2.06 16.18,6.11 4.21,4.05 6.36,9.49 6.36,16.51 0,1.57 -0.17,3.3 -0.41,5.12 z m -33.76,-8.67 h 22.87 c -1.07,-5.86 -5.28,-9.41 -11.23,-9.41 -5.95,0 -10.24,3.55 -11.64,9.41 z"
       id="path2" />
    <path
       d="m 503.54,504.46 h 11.64 v 62.74 h -11.39 v -5.53 c -3.63,4.38 -8.25,6.6 -13.95,6.6 -6.36,0 -11.72,-2.23 -15.93,-6.69 -4.21,-4.54 -6.36,-10.15 -6.36,-16.92 0,-6.77 2.15,-12.3 6.36,-16.84 4.29,-4.54 9.58,-6.77 15.93,-6.77 5.45,0 9.99,2.15 13.7,6.36 z m -2.89,31.04 c -2.31,-2.56 -5.28,-3.8 -9,-3.8 -3.72,0 -6.69,1.24 -9.08,3.8 -2.31,2.48 -3.47,5.53 -3.47,9.16 0,3.63 1.16,6.77 3.47,9.33 2.39,2.48 5.37,3.71 9.08,3.71 3.71,0 6.69,-1.24 9,-3.71 2.31,-2.56 3.47,-5.61 3.47,-9.33 0,-3.72 -1.16,-6.69 -3.47,-9.16 z"
       id="path3" />
    <path
       d="m 526.65,515.11 c -2.72,-2.72 -2.72,-7.51 0,-10.15 2.72,-2.72 7.51,-2.72 10.24,0 2.72,2.64 2.72,7.43 0,10.15 -2.72,2.72 -7.51,2.72 -10.24,0 z m 10.9,52.09 h -11.64 v -44.99 h 11.64 z"
       id="path4" />
    <path
       d="m 582.21,522.21 h 11.06 V 567.2 H 582.21 V 562 c -3.88,4.21 -8.67,6.27 -14.36,6.27 -6.44,0 -11.8,-2.23 -16.01,-6.77 -4.21,-4.54 -6.27,-10.24 -6.27,-17 0,-6.76 2.15,-12.38 6.36,-16.76 4.21,-4.46 9.58,-6.69 15.93,-6.69 5.61,0 10.4,2.15 14.36,6.52 v -5.37 z m -3.47,13.29 c -2.39,-2.56 -5.37,-3.8 -9,-3.8 -3.63,0 -6.69,1.24 -9.08,3.8 -2.31,2.56 -3.47,5.61 -3.47,9.16 0,3.55 1.16,6.69 3.55,9.25 2.39,2.56 5.37,3.8 9,3.8 3.63,0 6.6,-1.24 9,-3.8 2.39,-2.56 3.63,-5.61 3.63,-9.25 0,-3.64 -1.24,-6.6 -3.63,-9.16 z"
       id="path5" />
    <path
       d="M 613.82,518 H 596.4 v -11.8 h 47.22 V 518 H 626.2 v 49.2 h -12.38 z"
       id="path6" />
    <path
       d="m 646.35,567.2 v -44.99 h 11.14 v 6.03 c 2.72,-4.87 6.85,-7.26 12.38,-7.26 1.82,0 3.63,0.33 5.45,0.99 l -0.99,11.14 c -1.9,-0.58 -3.71,-0.91 -5.37,-0.91 -6.6,0 -10.98,4.29 -10.98,13.62 v 21.38 h -11.64 z"
       id="path7" />
    <path
       d="m 713.79,522.21 h 11.06 V 567.2 H 713.79 V 562 c -3.88,4.21 -8.67,6.27 -14.36,6.27 -6.44,0 -11.8,-2.23 -16.01,-6.77 -4.21,-4.54 -6.27,-10.24 -6.27,-17 0,-6.76 2.15,-12.38 6.36,-16.76 4.21,-4.46 9.58,-6.69 15.93,-6.69 5.61,0 10.4,2.15 14.36,6.52 v -5.37 z m -3.47,13.29 c -2.39,-2.56 -5.37,-3.8 -9,-3.8 -3.63,0 -6.69,1.24 -9.08,3.8 -2.31,2.56 -3.47,5.61 -3.47,9.16 0,3.55 1.16,6.69 3.55,9.25 2.39,2.56 5.37,3.8 9,3.8 3.63,0 6.6,-1.24 9,-3.8 2.39,-2.56 3.63,-5.61 3.63,-9.25 0,-3.64 -1.24,-6.6 -3.63,-9.16 z"
       id="path8" />
    <path
       d="m 739.62,561.59 c -4.46,-4.38 -6.69,-10.07 -6.69,-16.92 0,-6.85 2.23,-12.55 6.77,-16.92 4.54,-4.46 10.32,-6.69 17.42,-6.69 9.16,0 17.25,4.54 20.97,12.55 l -9.33,5.12 c -2.72,-4.54 -6.6,-6.85 -11.47,-6.85 -3.71,0 -6.77,1.24 -9.16,3.71 -2.39,2.39 -3.63,5.45 -3.63,9.08 0,3.63 1.16,6.77 3.55,9.25 2.39,2.39 5.45,3.63 9,3.63 4.71,0 9.49,-2.81 11.47,-6.77 l 9.41,5.53 c -3.88,7.26 -11.89,11.89 -21.13,11.89 -7.02,0 -12.71,-2.23 -17.17,-6.6 z"
       id="path9" />
    <path
       d="m 814.66,567.2 -14.86,-19.23 -3.05,2.72 v 16.51 h -11.64 v -62.74 h 11.64 v 33.1 l 16.34,-15.35 h 14.69 l -20.06,18.41 21.21,26.58 h -14.28 z"
       id="path10" />
    <path
       d="m 873.35,548.79 h -33.76 c 1.65,6.36 6.03,9.58 13.13,9.58 4.87,0 10.65,-1.9 14.53,-4.54 l 4.62,8.17 c -5.7,4.13 -12.22,6.19 -19.65,6.19 -7.92,0 -13.95,-2.31 -18.16,-6.85 -4.21,-4.54 -6.27,-10.15 -6.27,-16.67 0,-6.85 2.15,-12.46 6.52,-16.92 4.37,-4.46 9.99,-6.69 16.92,-6.69 6.52,0 11.97,2.06 16.18,6.11 4.21,4.05 6.36,9.49 6.36,16.51 0,1.57 -0.17,3.3 -0.41,5.12 z m -33.76,-8.67 h 22.87 c -1.07,-5.86 -5.28,-9.41 -11.23,-9.41 -5.95,0 -10.24,3.55 -11.64,9.41 z"
       id="path11" />
    <path
       d="m 881.77,567.2 v -44.99 h 11.14 v 6.03 c 2.72,-4.87 6.85,-7.26 12.38,-7.26 1.82,0 3.63,0.33 5.45,0.99 l -0.99,11.14 c -1.9,-0.58 -3.71,-0.91 -5.37,-0.91 -6.6,0 -10.98,4.29 -10.98,13.62 v 21.38 h -11.64 z"
       id="path12" />
  </g>
  <g
     id="g19"
     transform="translate(-169.25,-494.64)">
    <path
       class="cls-2"
       d="m 202.62,533.01 v 50.65 c 0,1.55 -1.91,2.28 -2.95,1.13 -8.12,-8.91 -18.12,-16.07 -29.38,-20.85 -0.63,-0.27 -1.04,-0.87 -1.04,-1.56 v -37.22 c 0,0.94 0.77,1.7 1.7,1.7 h 0.02 c 11.19,0 21.87,2.18 31.64,6.14 z"
       id="path13" />
    <path
       class="cls-2"
       d="m 228.24,549.29 c -0.28,-0.27 -0.58,-0.53 -0.87,-0.79 -7.23,-6.5 -15.58,-11.77 -24.75,-15.48 v -31.08 c 0,-0.68 -0.4,-1.29 -1.02,-1.55 0.34,0.13 0.68,0.26 1.02,0.4 14.36,5.81 26.74,15.46 35.89,27.67 -4.34,5.79 -7.96,12.15 -10.71,18.96 -0.27,0.65 -0.08,1.4 0.44,1.88 z"
       id="path14" />
    <path
       class="cls-1"
       d="m 202.62,501.94 v 31.08 c -9.77,-3.96 -20.45,-6.14 -31.64,-6.14 h -0.02 c -0.94,0 -1.7,-0.75 -1.7,-1.7 v -28.84 c 0,-0.65 0.36,-1.21 0.89,-1.49 0.09,-0.05 0.2,-0.09 0.3,-0.13 0.16,-0.05 0.32,-0.08 0.5,-0.08 h 0.04 c 0.67,0 1.35,0 2.02,0.03 h 0.08 c 0.64,0.02 1.29,0.04 1.93,0.07 0.05,0 0.1,0 0.15,0 0.49,0.03 0.97,0.05 1.45,0.08 0.21,0.01 0.41,0.03 0.61,0.04 0.45,0.03 0.91,0.07 1.36,0.11 0.23,0.01 0.47,0.04 0.7,0.06 h 0.01 c 0.54,0.05 1.07,0.11 1.6,0.17 0.14,0.01 0.28,0.03 0.42,0.05 0.53,0.06 1.06,0.13 1.58,0.21 0.52,0.08 1.06,0.15 1.58,0.23 0.23,0.04 0.46,0.08 0.7,0.12 0.44,0.07 0.87,0.15 1.3,0.23 0.21,0.04 0.41,0.08 0.62,0.12 0.25,0.04 0.49,0.09 0.73,0.15 0.38,0.08 0.76,0.15 1.14,0.24 0.27,0.05 0.54,0.11 0.82,0.18 0.43,0.09 0.86,0.2 1.29,0.3 0.53,0.13 1.06,0.26 1.59,0.41 0.36,0.09 0.72,0.19 1.08,0.29 0.34,0.09 0.68,0.2 1.03,0.3 0.3,0.08 0.6,0.17 0.89,0.27 0.34,0.1 0.68,0.21 1.02,0.32 0.18,0.06 0.37,0.11 0.56,0.18 0.49,0.16 0.98,0.32 1.47,0.5 0.18,0.06 0.37,0.12 0.55,0.2 0.3,0.1 0.61,0.21 0.91,0.33 0.35,0.13 0.71,0.26 1.06,0.4 0.13,0.04 0.25,0.09 0.37,0.15 0.62,0.26 1.02,0.87 1.02,1.55 z"
       id="path15" />
    <path
       class="cls-2"
       d="m 307.76,525.18 v 37.22 c 0,0.68 -0.41,1.29 -1.04,1.56 -11.26,4.78 -21.26,11.94 -29.38,20.85 -1.04,1.15 -2.95,0.41 -2.95,-1.13 v -50.65 c 9.77,-3.96 20.45,-6.14 31.64,-6.14 h 0.02 c 0.94,0 1.7,-0.75 1.7,-1.7 z"
       id="path16" />
    <path
       class="cls-1"
       d="m 307.76,496.34 v 28.84 c 0,0.94 -0.77,1.7 -1.7,1.7 h -0.02 c -11.19,0 -21.87,2.18 -31.64,6.14 v -31.08 c 0,-0.68 0.4,-1.29 1.01,-1.55 v 0 c 0.12,-0.06 0.24,-0.1 0.37,-0.15 0.35,-0.14 0.71,-0.27 1.06,-0.4 0.3,-0.12 0.61,-0.23 0.91,-0.33 0.03,0 0.04,-0.02 0.07,-0.03 0.15,-0.06 0.29,-0.11 0.44,-0.16 0.01,0 0.03,0 0.04,-0.01 0.49,-0.18 0.98,-0.34 1.47,-0.5 0.18,-0.06 0.37,-0.12 0.56,-0.18 0.29,-0.1 0.58,-0.19 0.88,-0.28 0.04,-0.02 0.09,-0.03 0.14,-0.04 0.3,-0.09 0.6,-0.18 0.89,-0.27 0.28,-0.08 0.56,-0.16 0.84,-0.25 0.03,0 0.04,-0.01 0.07,-0.02 0.04,-0.01 0.08,-0.02 0.11,-0.03 0.34,-0.09 0.66,-0.18 1,-0.27 0.03,0 0.06,-0.01 0.08,-0.02 0.53,-0.15 1.06,-0.28 1.59,-0.41 0.43,-0.11 0.86,-0.21 1.29,-0.3 0.03,0 0.06,-0.02 0.09,-0.03 0.22,-0.05 0.43,-0.1 0.65,-0.15 0.03,0 0.05,0 0.08,-0.01 0.38,-0.09 0.76,-0.16 1.14,-0.24 0.24,-0.05 0.49,-0.1 0.73,-0.15 0.21,-0.04 0.41,-0.08 0.62,-0.12 0.43,-0.08 0.87,-0.16 1.3,-0.23 0.17,-0.03 0.34,-0.06 0.51,-0.09 0.03,0 0.04,0 0.07,-0.01 0.04,0 0.08,-0.01 0.12,-0.02 0.52,-0.08 1.05,-0.16 1.58,-0.23 0.53,-0.08 1.05,-0.15 1.58,-0.21 0.14,-0.02 0.28,-0.04 0.42,-0.05 0.53,-0.06 1.06,-0.12 1.6,-0.17 h 0.01 c 0.23,-0.03 0.46,-0.05 0.7,-0.06 0.45,-0.04 0.91,-0.08 1.36,-0.11 0.2,-0.01 0.41,-0.03 0.61,-0.04 0.48,-0.03 0.96,-0.06 1.45,-0.08 0.05,0 0.1,0 0.15,0 0.64,-0.03 1.29,-0.05 1.93,-0.07 H 304 c 0.67,-0.02 1.35,-0.03 2.02,-0.03 h 0.07 c 0.07,0 0.13,0 0.2,0.02 0.09,0 0.18,0.03 0.27,0.06 0.11,0.03 0.2,0.08 0.3,0.13 0.08,0.04 0.15,0.09 0.22,0.15 0.05,0.04 0.09,0.08 0.14,0.12 0.05,0.04 0.09,0.09 0.14,0.15 0.05,0.06 0.09,0.13 0.14,0.2 0.03,0.04 0.06,0.09 0.08,0.14 0.01,0.03 0.03,0.05 0.04,0.08 0.03,0.08 0.06,0.14 0.08,0.22 v 0 c 0.02,0.08 0.03,0.14 0.04,0.2 0.01,0.08 0.02,0.16 0.02,0.24 z"
       id="path17" />
    <path
       class="cls-2"
       d="m 275.41,500.38 c -0.61,0.27 -1.01,0.87 -1.01,1.55 v 31.08 c -9.16,3.71 -17.52,8.98 -24.75,15.48 -0.29,0.26 -0.58,0.53 -0.87,0.79 0.52,-0.48 0.7,-1.23 0.44,-1.88 -2.75,-6.81 -6.36,-13.17 -10.71,-18.96 9.14,-12.21 21.53,-21.85 35.89,-27.67 0.34,-0.14 0.67,-0.27 1.01,-0.4 z"
       id="path18" />
    <path
       class="cls-1"
       d="m 248.78,549.29 c -0.06,0.06 -0.12,0.11 -0.18,0.16 -0.35,0.33 -0.71,0.66 -1.06,1.01 -0.17,0.16 -0.34,0.33 -0.51,0.49 -0.24,0.23 -0.48,0.47 -0.71,0.7 -0.24,0.23 -0.47,0.47 -0.7,0.71 -0.02,0.02 -0.04,0.04 -0.06,0.06 -0.27,0.28 -0.54,0.56 -0.82,0.85 -0.99,1.04 -1.94,2.11 -2.87,3.2 -0.36,0.42 -0.71,0.84 -1.06,1.26 -0.33,0.4 -0.65,0.8 -0.98,1.21 -0.68,0.85 -1.97,0.85 -2.65,0 -0.51,-0.65 -1.04,-1.3 -1.58,-1.93 -0.23,-0.28 -0.47,-0.56 -0.72,-0.84 -0.04,-0.05 -0.08,-0.1 -0.13,-0.15 -0.24,-0.29 -0.49,-0.58 -0.75,-0.86 -0.3,-0.35 -0.61,-0.69 -0.93,-1.03 -0.3,-0.34 -0.62,-0.68 -0.94,-1.01 -0.19,-0.21 -0.39,-0.41 -0.59,-0.61 -0.06,-0.06 -0.12,-0.13 -0.19,-0.19 -0.24,-0.25 -0.49,-0.51 -0.74,-0.75 -0.77,-0.78 -1.56,-1.54 -2.37,-2.29 -0.52,-0.48 -0.7,-1.23 -0.44,-1.88 2.75,-6.81 6.36,-13.17 10.71,-18.96 4.34,5.79 7.96,12.15 10.71,18.96 0.27,0.65 0.08,1.4 -0.44,1.88 z"
       id="path19" />
  </g>
</svg>
