<?xml version="1.0" encoding="UTF-8"?>
<!DOCTYPE svg PUBLIC "-//W3C//DTD SVG 1.1//EN" "http://www.w3.org/Graphics/SVG/1.1/DTD/svg11.dtd">
<!-- Creator: CorelDRAW X6 -->
<svg xmlns="http://www.w3.org/2000/svg" xml:space="preserve" width="8.75in" height="1.30555in" version="1.1" style="shape-rendering:geometricPrecision; text-rendering:geometricPrecision; image-rendering:optimizeQuality; fill-rule:evenodd; clip-rule:evenodd"
viewBox="0 0 8750 1306"
 xmlns:xlink="http://www.w3.org/1999/xlink">
 <defs>
  <style type="text/css">
   <![CDATA[
    .fil1 {fill:url(#id0)}
    .fil2 {fill:url(#id1)}
    .fil3 {fill:url(#id2)}
    .fil4 {fill:url(#id3)}
    .fil5 {fill:url(#id4)}
    .fil6 {fill:url(#id5)}
    .fil7 {fill:url(#id6)}
    .fil8 {fill:url(#id7)}
    .fil9 {fill:url(#id8)}
    .fil0 {fill:url(#id9)}
   ]]>
  </style>
  <linearGradient id="id0" gradientUnits="userSpaceOnUse" x1="1326.56" y1="688.051" x2="2006.98" y2="688.051">
   <stop offset="0" style="stop-color:#E1BA41"/>
   <stop offset="0.501961" style="stop-color:#F9D36E"/>
   <stop offset="1" style="stop-color:#E1BA41"/>
  </linearGradient>
  <linearGradient id="id1" gradientUnits="userSpaceOnUse" xlink:href="#id0" x1="2169.03" y1="882.831" x2="2895.39" y2="882.831">
  </linearGradient>
  <linearGradient id="id2" gradientUnits="userSpaceOnUse" xlink:href="#id0" x1="2988.07" y1="871.772" x2="3634.48" y2="871.772">
  </linearGradient>
  <linearGradient id="id3" gradientUnits="userSpaceOnUse" xlink:href="#id0" x1="3682.52" y1="762.894" x2="4209.86" y2="762.894">
  </linearGradient>
  <linearGradient id="id4" gradientUnits="userSpaceOnUse" xlink:href="#id0" x1="4211.56" y1="672.756" x2="5858.21" y2="672.756">
  </linearGradient>
  <linearGradient id="id5" gradientUnits="userSpaceOnUse" xlink:href="#id0" x1="5801.08" y1="870.917" x2="6527.44" y2="870.917">
  </linearGradient>
  <linearGradient id="id6" gradientUnits="userSpaceOnUse" xlink:href="#id0" x1="6590.39" y1="762.894" x2="7117.71" y2="762.894">
  </linearGradient>
  <linearGradient id="id7" gradientUnits="userSpaceOnUse" xlink:href="#id0" x1="7187.44" y1="871.772" x2="7922.32" y2="871.772">
  </linearGradient>
  <linearGradient id="id8" gradientUnits="userSpaceOnUse" xlink:href="#id0" x1="8041.37" y1="631.933" x2="8760.94" y2="631.933">
  </linearGradient>
  <linearGradient id="id9" gradientUnits="userSpaceOnUse" x1="-6.15748" y1="671.472" x2="1249.89" y2="671.472">
   <stop offset="0" style="stop-color:#F9D36E"/>
   <stop offset="0.0588235" style="stop-color:#F9D36E"/>
   <stop offset="1" style="stop-color:#E1BA41"/>
  </linearGradient>
 </defs>
 <g id="Layer_x0020_1">
  <metadata id="CorelCorpID_0Corel-Layer"/>
  <path class="fil0" d="M941 551l0 245c0,0 -3,36 30,19 33,-17 129,-66 191,-98 89,-45 0,-89 0,-89 0,0 -160,-82 -192,-98 -32,-16 -29,21 -29,21zm-275 426c45,-22 196,-100 229,-118 46,-23 1,-45 1,-45l-229 -119c0,0 -41,-22 -39,24 2,46 0,230 0,230 0,0 -6,49 39,27zm-313 158c45,-22 196,-100 229,-118 46,-23 1,-45 1,-45l-229 -119c0,0 -41,-22 -39,24 2,46 0,230 0,230 0,0 -6,49 39,27zm-314 -164c45,-22 196,-100 229,-118 46,-23 1,-45 1,-45l-229 -119c0,0 -41,-22 -39,24 2,46 0,230 0,230 0,0 -6,49 39,27zm314 -157c45,-22 196,-100 229,-118 46,-23 1,-45 1,-45l-229 -119c0,0 -41,-22 -39,24 2,46 0,230 0,230 0,0 -7,49 39,27zm313 -166c45,-22 196,-100 229,-118 46,-23 1,-45 1,-45l-229 -119c0,0 -41,-22 -39,24 2,46 0,230 0,230 0,0 -6,49 39,27zm-627 6c45,-22 196,-100 229,-118 46,-23 1,-45 1,-45l-229 -119c0,0 -41,-22 -39,24 2,46 0,230 0,230 0,0 -6,49 39,27zm313 -165c45,-22 196,-100 229,-118 46,-23 1,-45 1,-45l-229 -119c0,0 -41,-22 -39,24 2,46 0,230 0,230 0,0 -6,49 39,27zm-352 529l0 200c0,0 6,92 97,44 92,-47 186,-95 186,-95 0,0 26,-15 0,-29 -26,-14 -260,-134 -260,-134 0,0 -24,-10 -24,14zm1 -694l0 -200c0,0 6,-92 97,-44 92,47 186,95 186,95 0,0 26,15 0,29 -26,14 -260,134 -260,134 0,0 -24,10 -24,-14z"/>
  <path class="fil1" d="M1483 1006c9,43 29,79 60,107 31,28 69,43 114,43 36,0 66,-7 89,-20 23,-14 42,-32 55,-55 14,-23 23,-50 29,-82 6,-31 9,-64 9,-100l0 -828 168 0 0 835c0,42 -5,86 -14,133 -9,47 -26,90 -51,129 -25,40 -60,73 -105,99 -45,26 -102,39 -173,39 -92,0 -167,-24 -225,-71 -58,-48 -96,-109 -114,-184l157 -44z"/>
  <path class="fil2" d="M2744 1275c-2,-20 -4,-43 -5,-69 -1,-26 -2,-47 -2,-64l-3 0c-20,43 -55,80 -103,110 -48,30 -102,45 -161,45 -52,0 -97,-9 -135,-26 -38,-17 -69,-41 -94,-71 -24,-30 -43,-65 -54,-105 -12,-40 -18,-82 -18,-128l0 -500 160 0 0 446c0,33 3,64 8,94 5,30 14,56 28,79 14,23 32,41 56,54 24,14 54,20 92,20 65,0 117,-24 157,-72 40,-48 60,-113 60,-193l0 -429 160 0 0 633c0,22 1,49 2,83 1,34 3,64 5,90l-151 0z"/>
  <path class="fil3" d="M3517 673c-18,-29 -44,-54 -77,-72 -33,-19 -70,-28 -111,-28 -18,0 -36,2 -54,6 -18,4 -34,10 -48,19 -14,9 -26,19 -34,32 -9,13 -13,29 -13,48 0,34 15,59 46,76 31,16 77,31 138,45 39,9 74,20 107,32 33,12 61,28 86,47 24,19 43,41 57,67 14,26 20,57 20,92 0,48 -9,88 -27,121 -18,33 -42,60 -72,81 -30,21 -64,36 -103,45 -39,9 -78,14 -119,14 -61,0 -121,-12 -179,-36 -58,-24 -107,-60 -145,-109l114 -97c22,32 51,58 89,80 38,22 80,32 125,32 20,0 40,-2 59,-6 19,-4 36,-10 51,-20 15,-9 27,-21 37,-36 9,-15 14,-33 14,-56 0,-37 -18,-65 -54,-83 -36,-18 -88,-35 -157,-51 -27,-7 -55,-15 -83,-25 -28,-10 -53,-23 -76,-40 -23,-17 -41,-38 -55,-64 -14,-26 -21,-57 -21,-94 0,-43 9,-80 26,-111 18,-31 41,-57 69,-77 28,-20 61,-35 97,-44 36,-10 74,-14 112,-14 58,0 114,11 168,34 54,23 96,56 125,99l-111 94z"/>
  <path class="fil4" d="M4210 600l-214 0 0 419c0,49 9,83 27,104 18,21 47,31 87,31 15,0 31,-2 48,-5 17,-3 32,-8 46,-14l5 131c-19,7 -41,12 -64,16 -23,4 -47,6 -72,6 -76,0 -134,-21 -174,-63 -40,-42 -60,-105 -60,-189l0 -437 -155 0 0 -131 155 0 0 -231 158 0 0 231 214 0 0 131z"/>
  <polygon class="fil5" points="4659,1030 4662,1030 4945,71 5130,71 5411,1030 5414,1030 5680,71 5858,71 5504,1275 5329,1275 5037,307 5033,307 4741,1275 4565,1275 4212,71 4394,71 "/>
  <path class="fil6" d="M6323 890c-40,0 -81,2 -123,5 -43,3 -81,10 -116,20 -35,10 -63,26 -86,46 -23,20 -34,48 -34,82 0,24 5,44 14,60 10,16 22,29 38,39 16,10 33,17 53,21 19,4 39,6 60,6 75,0 132,-22 173,-67 40,-45 60,-101 60,-169l0 -43 -39 0zm39 -138c0,-60 -18,-105 -54,-134 -36,-29 -85,-43 -145,-43 -45,0 -88,9 -128,26 -40,18 -74,40 -101,67l-85 -102c40,-37 88,-67 145,-88 57,-22 119,-32 185,-32 58,0 108,8 151,25 43,16 77,39 105,67 27,28 48,62 61,100 14,39 20,80 20,124l0 352c0,27 1,56 3,86 2,30 5,55 9,74l-145 0c-9,-39 -14,-77 -14,-116l-5 0c-30,43 -67,77 -111,100 -45,24 -98,36 -159,36 -32,0 -65,-4 -100,-13 -35,-9 -66,-22 -94,-42 -28,-19 -52,-45 -71,-77 -19,-32 -28,-71 -28,-117 0,-61 16,-110 49,-145 33,-36 76,-63 129,-82 53,-19 113,-31 180,-37 67,-6 134,-8 202,-8l0 -22z"/>
  <path class="fil7" d="M7118 600l-214 0 0 419c0,49 9,83 27,104 18,21 47,31 87,31 15,0 31,-2 48,-5 17,-3 32,-8 46,-14l5 131c-19,7 -41,12 -64,16 -23,4 -47,6 -72,6 -76,0 -134,-21 -174,-63 -40,-42 -60,-105 -60,-189l0 -437 -155 0 0 -131 155 0 0 -231 158 0 0 231 214 0 0 131z"/>
  <path class="fil8" d="M7805 673c-17,-26 -43,-48 -77,-66 -34,-18 -70,-26 -109,-26 -42,0 -79,8 -111,24 -32,16 -60,37 -83,64 -23,27 -40,58 -52,93 -12,35 -18,72 -18,111 0,39 6,75 18,111 12,35 29,66 52,93 23,27 50,48 83,64 33,16 70,24 112,24 41,0 78,-8 111,-24 33,-16 61,-37 83,-65l107 97c-34,40 -77,71 -128,93 -51,22 -109,33 -174,33 -62,0 -120,-10 -173,-31 -53,-20 -98,-49 -137,-86 -39,-37 -69,-81 -91,-134 -22,-52 -33,-111 -33,-175 0,-64 11,-121 32,-174 22,-52 52,-97 90,-134 39,-37 84,-66 137,-87 53,-20 110,-31 171,-31 57,0 113,11 169,34 56,23 101,56 134,99l-116 94z"/>
  <path class="fil9" d="M8205 591c19,-40 52,-74 99,-102 46,-28 99,-43 156,-43 52,0 97,9 134,26 37,18 69,41 94,71 25,30 43,64 55,104 12,40 18,82 18,128l0 500 -160 0 0 -447c0,-33 -3,-64 -8,-94 -5,-30 -14,-56 -28,-78 -14,-23 -32,-41 -55,-55 -23,-14 -54,-20 -91,-20 -64,0 -116,24 -157,72 -41,48 -61,113 -61,194l0 428 -160 0 0 -1286 160 0 0 602 3 0z"/>
 </g>
</svg>
