<svg height="256" preserveAspectRatio="xMidYMid" viewBox="0 0 256 256" width="256" xmlns="http://www.w3.org/2000/svg" xmlns:xlink="http://www.w3.org/1999/xlink"><defs><path id="a" d="m256 128c0 70.692-57.308 128-128 128s-128-57.308-128-128 57.308-128 128-128 128 57.308 128 128"/><linearGradient id="b" x1="8.590011%" x2="77.47058%" y1="1.954486%" y2="73.896215%"><stop offset="0" stop-color="#4cb36b"/><stop offset="1" stop-color="#3ea16f"/></linearGradient><mask id="c" fill="#fff"><use fill="#fff" xlink:href="#a"/></mask></defs><use fill="#67bf79" xlink:href="#a"/><path d="m256 128c0 70.692-57.308 128-128 128s-128-57.308-128-128 57.308-128 128-128 128 57.308 128 128" fill="#67bf79" mask="url(#c)"/><path d="m63.111 187.022 33.067-115.022 64.533 60.978 39.289-42.845 87.533 86.289-110.844 124.889z" fill="url(#b)" mask="url(#c)"/><g fill="#fff"><path d="m77 189.6c-16.733 0-16.733 0-16.733-16.733v-91.867c0-16.733 0-16.733 16.733-16.733h3.334c16.7329992 0 16.7329992 0 16.733 16.733v91.867c-.0000008 16.733-.0000008 16.733-16.733 16.733z" mask="url(#c)"/><path d="m121.041 189.6c-5.699 0-8.508-2.809-8.508-8.508v-108.318c0-5.698 2.809-8.507 8.508-8.507h37.537c32.178 0 52.628 32.273 52.628 63.025s-20.628 62.308-52.628 62.308z" mask="url(#c)"/></g></svg>