<?xml version="1.0" encoding="utf-8"?>
<!-- Generator: Adobe Illustrator 18.0.0, SVG Export Plug-In . SVG Version: 6.00 Build 0)  -->
<!DOCTYPE svg PUBLIC "-//W3C//DTD SVG 1.1//EN" "http://www.w3.org/Graphics/SVG/1.1/DTD/svg11.dtd">
<svg version="1.1" id="Layer_1" xmlns="http://www.w3.org/2000/svg" xmlns:xlink="http://www.w3.org/1999/xlink" x="0px" y="0px"
	 viewBox="0 0 288.8 98.1" enable-background="new 0 0 288.8 98.1" xml:space="preserve">
<circle fill="#FFFFFF" cx="49.1" cy="49.1" r="49.1"/>
<path fill="#ED2224" d="M20,75.8c7.2,7.8,17.6,12.8,29.1,12.8c5.9,0,11.5-1.3,16.5-3.6L38.2,57.6L20,75.8z"/>
<path fill="#ED2224" d="M38,41.1L17.3,61.8L14.5,59l21.8-21.8h0l25.5-25.5c-4-1.4-8.3-2.1-12.8-2.1C27.3,9.6,9.6,27.2,9.6,49.1
	c0,8.9,2.9,17.1,7.9,23.7l20.7-20.7l1.4,1.4L69.2,83c0.6-0.3,1.2-0.7,1.7-1.1L38.2,49.2L18.3,69.1l-2.8-2.8l22.7-22.7l1.4,1.4
	l34.5,34.5c0.5-0.4,1-0.9,1.5-1.3L38.4,41.1L38,41.1z"/>
<path fill="#ED1C24" d="M78.4,75.5c6.3-7,10.2-16.3,10.2-26.5c0-15.8-9.3-29.5-22.8-35.8L41,38.1L78.4,75.5z M50.5,45.3l-2.8-2.8
	L67.3,23l2.8,2.8L50.5,45.3z M69.1,18.4L46.5,41l-2.8-2.8l22.6-22.6L69.1,18.4z"/>
<g>
	<path fill="#FFFFFF" d="M38.2,52.1L17.5,72.8c0.8,1.1,1.6,2.1,2.5,3l18.2-18.2L65.5,85c1.3-0.6,2.5-1.2,3.7-1.9L39.6,53.4
		L38.2,52.1z"/>
	<path fill="#FFFFFF" d="M38.2,43.7L15.5,66.4l2.8,2.8l19.9-19.9L70.9,82c1.1-0.7,2.2-1.5,3.2-2.4L39.6,45.1L38.2,43.7z"/>
	<path fill="#FFFFFF" d="M41,38.1l24.8-24.8c-1.3-0.6-2.6-1.1-4-1.6L36.3,37.1h0L14.5,59l2.8,2.8L38,41.1l0.4,0l37.2,37.2
		c1-0.9,1.9-1.8,2.8-2.8L41,38.1z"/>
	
		<rect x="40.4" y="26.3" transform="matrix(-0.7071 0.7071 -0.7071 -0.7071 116.2221 8.4015)" fill="#FFFFFF" width="32" height="3.9"/>
	
		<rect x="56.9" y="20.3" transform="matrix(-0.7071 -0.7071 0.7071 -0.7071 76.3804 99.8893)" fill="#FFFFFF" width="3.9" height="27.7"/>
</g>
<g>
	<g>
		<path fill="#ED2224" d="M49.1,98.1C22,98.1,0,76.1,0,49.1C0,22,22,0,49.1,0s49.1,22,49.1,49.1C98.1,76.1,76.1,98.1,49.1,98.1z
			 M49.1,4.9C24.7,4.9,4.9,24.7,4.9,49.1s19.8,44.1,44.1,44.1s44.1-19.8,44.1-44.1S73.4,4.9,49.1,4.9z"/>
	</g>
</g>
<g>
	<path fill="#010101" d="M124.8,61.7V36.8h-9V31h24.5v5.8h-8.9v24.9H124.8z"/>
	<path fill="#010101" d="M168.8,61.7l-6-10.9H158v10.9h-6.5V31h14.4c6.4,0,10.3,4.2,10.3,9.9c0,5.4-3.4,8.3-6.7,9.1l6.9,11.7H168.8z
		 M169.5,40.9c0-2.6-2-4.1-4.6-4.1H158V45h6.9C167.5,45,169.5,43.5,169.5,40.9z"/>
	<path fill="#010101" d="M210.7,61.7l-1.9-5.2h-13.2l-1.9,5.2h-7.5L198.1,31h8.2l11.8,30.7H210.7z M202.2,37.5l-4.8,13.2h9.6
		L202.2,37.5z"/>
	<path fill="#010101" d="M247,61.7l-9.3-12.3l-2.4,2.9v9.4h-6.5V31h6.5v13.7L246.1,31h8.1L242,45.4l13,16.3H247z"/>
	<path fill="#010101" d="M273.3,61.7V36.8h-9V31h24.5v5.8h-8.9v24.9H273.3z"/>
</g>
</svg>
