<svg xmlns="http://www.w3.org/2000/svg" width="24" height="24" viewBox="0 0 24 24" fill="none">
    <g opacity="0.4">
        <path fill-rule="evenodd" clip-rule="evenodd"
            d="M17.3509 9.89167C17.5583 9.53312 18.0171 9.4106 18.3757 9.61801C19.1957 10.0924 19.7501 10.9808 19.7501 11.9997C19.7501 13.0185 19.1957 13.9069 18.3757 14.3813C18.0171 14.5887 17.5583 14.4662 17.3509 14.1076C17.1435 13.7491 17.266 13.2903 17.6246 13.0829C18.0002 12.8656 18.2501 12.4614 18.2501 11.9997C18.2501 11.5379 18.0002 11.1337 17.6246 10.9164C17.266 10.709 17.1435 10.2502 17.3509 9.89167Z"
        />
        <path fill-rule="evenodd" clip-rule="evenodd"
            d="M17.2651 6.95056C17.3475 6.54462 17.7434 6.28235 18.1493 6.36475C20.7742 6.89757 22.7501 9.21706 22.7501 11.9997C22.7501 14.7824 20.7742 17.1019 18.1493 17.6347C17.7434 17.7171 17.3475 17.4549 17.2651 17.0489C17.1827 16.643 17.445 16.2471 17.8509 16.1647C19.7905 15.771 21.2501 14.055 21.2501 11.9997C21.2501 9.9445 19.7905 8.22848 17.8509 7.83477C17.445 7.75237 17.1827 7.35649 17.2651 6.95056Z"
        />
    </g>
    <path
        d="M11.8 4.40345L7.53323 7.60208C7.1871 7.86156 6.76617 8.00181 6.33358 8.00181H4C2.89543 8.00181 2 8.89684 2 10.0009V13.9991C2 15.1032 2.89543 15.9982 4 15.9982H6.33358C6.76617 15.9982 7.1871 16.1384 7.53323 16.3979L11.8 19.5966C13.1185 20.585 15 19.6446 15 17.9973V6.00272C15 4.35538 13.1185 3.41504 11.8 4.40345Z"
    />
</svg>