<svg width="16" height="16" viewBox="0 0 16 16" fill="none" xmlns="http://www.w3.org/2000/svg">
<g id="Huge-icon/interface/outline/clock-circle" clip-path="url(#clip0_108_2789)">
<path id="Vector" d="M8.00065 7.99967H7.50065C7.50065 8.21489 7.63837 8.40596 7.84254 8.47402L8.00065 7.99967ZM8.50065 4.66634C8.50065 4.3902 8.27679 4.16634 8.00065 4.16634C7.72451 4.16634 7.50065 4.3902 7.50065 4.66634H8.50065ZM9.84254 9.14068C10.1045 9.22801 10.3877 9.08643 10.475 8.82446C10.5623 8.56248 10.4207 8.27932 10.1588 8.192L9.84254 9.14068ZM8.50065 7.99967V4.66634H7.50065V7.99967H8.50065ZM7.84254 8.47402L9.84254 9.14068L10.1588 8.192L8.15877 7.52533L7.84254 8.47402ZM14.1673 7.99967C14.1673 11.4054 11.4064 14.1663 8.00065 14.1663V15.1663C11.9587 15.1663 15.1673 11.9577 15.1673 7.99967H14.1673ZM8.00065 14.1663C4.5949 14.1663 1.83398 11.4054 1.83398 7.99967H0.833984C0.833984 11.9577 4.04261 15.1663 8.00065 15.1663V14.1663ZM1.83398 7.99967C1.83398 4.59392 4.5949 1.83301 8.00065 1.83301V0.833008C4.04261 0.833008 0.833984 4.04163 0.833984 7.99967H1.83398ZM8.00065 1.83301C11.4064 1.83301 14.1673 4.59392 14.1673 7.99967H15.1673C15.1673 4.04163 11.9587 0.833008 8.00065 0.833008V1.83301Z" fill="#78828A"/>
</g>
<defs>
<clipPath id="clip0_108_2789">
<rect width="16" height="16" fill="white"/>
</clipPath>
</defs>
</svg>
