<svg xmlns="http://www.w3.org/2000/svg" height="48" viewBox="0 -960 960 960" width="48"><path d="M261-120q-24 0-42-18t-18-42v-570h-11q-12.75 0-21.375-8.675-8.625-8.676-8.625-21.5 0-12.825 8.625-21.325T190-810h158q0-13 8.625-21.5T378-840h204q12.75 0 21.375 8.625T612-810h158q12.75 0 21.375 8.675 8.625 8.676 8.625 21.5 0 12.825-8.625 21.325T770-750h-11v570q0 24-18 42t-42 18H261Zm0-630v570h438v-570H261Zm106 454q0 12.75 8.675 21.375 8.676 8.625 21.5 8.625 12.825 0 21.325-8.625T427-296v-339q0-12.75-8.675-21.375-8.676-8.625-21.5-8.625-12.825 0-21.325 8.625T367-635v339Zm166 0q0 12.75 8.675 21.375 8.676 8.625 21.5 8.625 12.825 0 21.325-8.625T593-296v-339q0-12.75-8.675-21.375-8.676-8.625-21.5-8.625-12.825 0-21.325 8.625T533-635v339ZM261-750v570-570Z"/></svg>