<svg width="24" height="24" viewBox="0 0 24 24" fill="none" xmlns="http://www.w3.org/2000/svg">
    <g id="Huge-icon/multimedia and audio/bulk/film 4">
        <g id="film">
            <path id="Vector 845 (Stroke)" opacity="0.4" fill-rule="evenodd" clip-rule="evenodd"
                d="M11.25 21.25C11.25 20.8358 11.5858 20.5 12 20.5H22C22.4142 20.5 22.75 20.8358 22.75 21.25C22.75 21.6642 22.4142 22 22 22H12C11.5858 22 11.25 21.6642 11.25 21.25Z"
            />
            <path id="Subtract" fill-rule="evenodd" clip-rule="evenodd"
                d="M22 12C22 17.5228 17.5228 22 12 22C6.47715 22 2 17.5228 2 12C2 6.47715 6.47715 2 12 2C17.5228 2 22 6.47715 22 12ZM13.5 6C13.5 6.82843 12.8284 7.5 12 7.5C11.1716 7.5 10.5 6.82843 10.5 6C10.5 5.17157 11.1716 4.5 12 4.5C12.8284 4.5 13.5 5.17157 13.5 6ZM6 13.5C6.82843 13.5 7.5 12.8284 7.5 12C7.5 11.1716 6.82843 10.5 6 10.5C5.17157 10.5 4.5 11.1716 4.5 12C4.5 12.8284 5.17157 13.5 6 13.5ZM19 12C19 12.8284 18.3284 13.5 17.5 13.5C16.6716 13.5 16 12.8284 16 12C16 11.1716 16.6716 10.5 17.5 10.5C18.3284 10.5 19 11.1716 19 12ZM12 19.5C12.8284 19.5 13.5 18.8284 13.5 18C13.5 17.1716 12.8284 16.5 12 16.5C11.1716 16.5 10.5 17.1716 10.5 18C10.5 18.8284 11.1716 19.5 12 19.5Z"
            />
        </g>
    </g>
</svg>