<svg width="24" height="24" viewBox="0 0 24 24" fill="none" xmlns="http://www.w3.org/2000/svg">
    <path
        d="M24.0001 17.0522C23.9439 13.9209 23.574 10.7545 22.9675 7.55859C22.4734 5.33813 20.6959 3.36047 17.8558 3.21563C15.759 3.12938 15.3536 4.32375 12.978 4.30078C12.3273 4.29656 11.6772 4.29656 11.0265 4.30078C8.65045 4.32375 8.24405 3.12938 6.14827 3.21563C3.30764 3.36047 1.47483 5.33297 1.03467 7.55859C0.427642 10.7545 0.0577985 13.9205 0.0020172 17.0517C-0.0115766 19.2319 2.14092 20.6822 3.56124 20.7816C6.30483 20.9887 8.48452 16.1508 10.1453 16.1503C11.3833 16.1573 12.6208 16.1578 13.8587 16.1503C15.52 16.1503 17.6978 20.9892 20.4433 20.782C21.8631 20.6827 24.0714 19.2225 24.0006 17.0522H24.0001ZM8.95045 10.9425H7.67077V12.2222C7.67077 12.7622 7.23295 13.2 6.69295 13.2C6.15295 13.2 5.71514 12.7622 5.71514 12.2222V10.9425H4.43545C3.89545 10.9425 3.45764 10.5047 3.45764 9.96469C3.45764 9.42469 3.89545 8.98688 4.43545 8.98688H5.71514V7.70719C5.71514 7.16719 6.15295 6.72938 6.69295 6.72938C7.23295 6.72938 7.67077 7.16719 7.67077 7.70719V8.98688H8.95045C9.49045 8.98688 9.92827 9.42469 9.92827 9.96469C9.92827 10.5047 9.49045 10.9425 8.95045 10.9425ZM16.8522 13.1995C16.0867 13.2202 15.4501 12.6155 15.4295 11.8505C15.4094 11.0827 16.0145 10.4452 16.7795 10.4255C17.5455 10.4063 18.183 11.0105 18.2026 11.7764C18.2219 12.5423 17.6176 13.1798 16.8522 13.1995ZM19.1608 9.50344C18.3953 9.525 17.7573 8.91984 17.7362 8.15438C17.717 7.3875 18.3212 6.75094 19.0872 6.72984C19.854 6.70969 20.4906 7.31484 20.5112 8.08078C20.5314 8.84625 19.9258 9.48422 19.1608 9.50344Z"
    />
</svg>