<?xml version="1.0" encoding="utf-8"?>
<!-- Generator: Adobe Illustrator 19.0.0, SVG Export Plug-In . SVG Version: 6.00 Build 0)  -->
<svg version="1.1" id="Livello_1" xmlns="http://www.w3.org/2000/svg" xmlns:xlink="http://www.w3.org/1999/xlink" x="0px" y="0px"
	 viewBox="0 0 40 40" enable-background="new 0 0 40 40" xml:space="preserve">
<g id="Livello_2_2_">
</g>
<path fill="#1A171B" d="M30.918,15.983H30.24v-3.271c0-0.02-0.003-0.041-0.006-0.062c-0.001-0.13-0.043-0.257-0.132-0.358
	L24.66,6.075c-0.002-0.002-0.003-0.002-0.004-0.004c-0.033-0.036-0.07-0.066-0.11-0.092c-0.012-0.008-0.024-0.015-0.036-0.022
	c-0.035-0.019-0.071-0.035-0.109-0.046c-0.01-0.003-0.02-0.007-0.03-0.01c-0.041-0.01-0.084-0.016-0.127-0.016H10.867
	c-0.611,0-1.107,0.497-1.107,1.107v8.99H9.082c-0.874,0-1.582,0.708-1.582,1.582v8.228c0,0.873,0.709,1.582,1.582,1.582H9.76v5.632
	c0,0.61,0.496,1.107,1.107,1.107h18.266c0.61,0,1.107-0.497,1.107-1.107v-5.632h0.678c0.873,0,1.582-0.708,1.582-1.582v-8.228
	C32.5,16.691,31.792,15.983,30.918,15.983z M10.867,6.992H23.69v5.664c0,0.306,0.248,0.553,0.554,0.553h4.89v2.773H10.867V6.992z
	 M19.149,22.16c-1.344-0.48-2.231-1.224-2.231-2.399c0-1.379,1.164-2.422,3.059-2.422c0.924,0,1.583,0.18,2.063,0.407l-0.408,1.463
	c-0.312-0.155-0.899-0.383-1.679-0.383c-0.792,0-1.176,0.371-1.176,0.779c0,0.516,0.443,0.743,1.499,1.139
	c1.428,0.528,2.087,1.271,2.087,2.411c0,1.356-1.031,2.507-3.25,2.507c-0.924,0-1.835-0.252-2.291-0.504l0.372-1.499
	c0.479,0.252,1.247,0.504,2.026,0.504c0.84,0,1.284-0.349,1.284-0.876C20.504,22.783,20.121,22.496,19.149,22.16z M9.623,21.608
	c0-2.747,1.967-4.27,4.413-4.27c0.948,0,1.667,0.191,1.991,0.348l-0.384,1.451c-0.359-0.156-0.876-0.3-1.535-0.3
	c-1.439,0-2.566,0.875-2.566,2.674c0,1.607,0.959,2.627,2.578,2.627c0.564,0,1.164-0.107,1.535-0.264l0.265,1.439
	c-0.324,0.155-1.092,0.348-2.063,0.348C11.062,25.662,9.623,23.911,9.623,21.608z M29.133,32.708H10.867v-5.333h18.266V32.708z
	 M27.655,25.542H25.52l-2.59-8.084h2.003l0.983,3.419c0.275,0.971,0.527,1.883,0.719,2.89h0.036
	c0.204-0.971,0.456-1.931,0.731-2.854l1.032-3.454h1.942L27.655,25.542z"/>
</svg>
